<svg width="32" height="32" viewBox="0 0 32 32" fill="none" xmlns="http://www.w3.org/2000/svg">
<g clip-path="url(#clip0)">
<path d="M12.604 22.382L15.111 24.889L24 16L15.111 7.111L12.604 9.618L17.191 14.222H5.49364e-07V17.778H17.191L12.604 22.382ZM28.444 0H3.555C1.591 0 -0.000999451 1.592 -0.000999451 3.556V10.667H3.555V3.556H28.444V28.445H3.555V21.334H-0.000999451V28.445C-0.000999451 30.409 1.591 32.001 3.555 32.001H28.444C30.408 32.001 32 30.409 32 28.445V3.556C32 1.592 30.408 0 28.444 0V0Z" fill="black"/>
</g>
<defs>
<clipPath id="clip0">
<rect width="32" height="32" fill="white"/>
</clipPath>
</defs>
</svg>
