<svg width="48" height="48" viewBox="0 0 48 48" fill="none" xmlns="http://www.w3.org/2000/svg">
<path d="M43.2 0H4.8C2.1555 0.015 0.015 2.1555 0 4.7985V43.2C0.015 45.8445 2.1555 47.985 4.7985 48H43.2C45.8445 47.985 47.985 45.8445 48 43.2015V4.8C47.985 2.1555 45.8445 0.015 43.2015 0H43.2V0ZM14.4 43.2H4.8V33.6H14.4V43.2ZM14.4 28.8H4.8V19.2H14.4V28.8ZM14.4 14.4H4.8V4.8H14.4V14.4ZM28.8 43.2H19.2V33.6H28.8V43.2ZM28.8 28.8H19.2V19.2H28.8V28.8ZM28.8 14.4H19.2V4.8H28.8V14.4ZM43.2 43.2H33.6V33.6H43.2V43.2ZM43.2 28.8H33.6V19.2H43.2V28.8ZM43.2 14.4H33.6V4.8H43.2V14.4Z" fill="black"/>
</svg>
