<svg width="32" height="32" viewBox="0 0 32 32" fill="none" xmlns="http://www.w3.org/2000/svg">
<path d="M28.8 0H3.2C1.437 0.01 0.01 1.437 0 3.199V28.8C0.01 30.563 1.437 31.99 3.199 32H28.8C30.563 31.99 31.99 30.563 32 28.801V3.2C31.99 1.437 30.563 0.01 28.801 0H28.8V0ZM9.6 28.8H3.2V22.4H9.6V28.8ZM9.6 19.2H3.2V12.8H9.6V19.2ZM9.6 9.6H3.2V3.2H9.6V9.6ZM19.2 28.8H12.8V22.4H19.2V28.8ZM19.2 19.2H12.8V12.8H19.2V19.2ZM19.2 9.6H12.8V3.2H19.2V9.6ZM28.8 28.8H22.4V22.4H28.8V28.8ZM28.8 19.2H22.4V12.8H28.8V19.2ZM28.8 9.6H22.4V3.2H28.8V9.6Z" fill="black"/>
</svg>
