<svg width="1000" height="1000" viewBox="0 0 1000 1000" fill="none" xmlns="http://www.w3.org/2000/svg">
<path d="M900 0H100C44.9062 0.3125 0.3125 44.9062 0 99.9688V900C0.3125 955.094 44.9062 999.688 99.9688 1000H900C955.094 999.688 999.688 955.094 1000 900.031V100C999.688 44.9062 955.094 0.3125 900.031 0H900V0ZM300 900H100V700H300V900ZM300 600H100V400H300V600ZM300 300H100V100H300V300ZM600 900H400V700H600V900ZM600 600H400V400H600V600ZM600 300H400V100H600V300ZM900 900H700V700H900V900ZM900 600H700V400H900V600ZM900 300H700V100H900V300Z" fill="black"/>
</svg>
