<svg width="41" height="32" viewBox="0 0 41 32" fill="none" xmlns="http://www.w3.org/2000/svg">
<path d="M40.275 16.629L36.968 14.579L40.26 12.716L20.184 0L0 12.716L3.276 14.564L0 16.629L3.276 18.492L0 20.557L20.184 32L40.368 20.557L37.061 18.507L40.275 16.629ZM20.183 1.987L37.014 12.638L35.353 13.57L20.184 22.218L3.26 12.638L20.183 1.987ZM4.921 15.526L20.137 24.159L20.572 23.911L35.307 15.527L36.999 16.567L35.353 17.499L20.153 26.147L3.26 16.567L4.921 15.526ZM36.998 20.495L20.183 30.075L3.259 20.48L4.92 19.44L20.182 28.073L35.351 19.44L36.998 20.495Z" fill="black"/>
</svg>
