<svg width="27" height="32" viewBox="0 0 27 32" fill="none" xmlns="http://www.w3.org/2000/svg">
<path d="M22.6455 9.36651L13.262 0L3.87845 9.36651C1.48256 11.7654 0 15.0787 0 18.738C0 26.0618 5.93723 32 13.262 32C20.5867 32 26.5239 26.0628 26.5239 18.738C26.5239 15.0787 25.0424 11.7654 22.6455 9.36651ZM3.28623 19.3092C3.28023 19.1812 3.27623 19.0311 3.27623 18.8801C3.27623 16.1781 4.40765 13.7412 6.22333 12.0165L6.22733 12.0125L13.261 4.92985L20.2946 12.1766C22.0943 13.8712 23.2147 16.2691 23.2147 18.9291C23.2147 19.0912 23.2107 19.2522 23.2027 19.4123L23.2037 19.3903L3.28623 19.3092Z" fill="black"/>
</svg>
