<svg width="32" height="32" viewBox="0 0 32 32" fill="none" xmlns="http://www.w3.org/2000/svg">
<path d="M29.6919 16.62C28.5899 15.518 26.8149 14.486 25.8479 13.004C25.7329 12.773 25.6109 12.547 25.4799 12.327C24.4769 9.967 26.0369 7.168 22.9989 3.425C22.6129 2.907 22.1849 2.456 21.7099 2.058L21.6969 2.048C21.5219 1.89 21.3309 1.742 21.1279 1.61L21.1099 1.599C19.6629 0.599 17.8459 0 15.8699 0C13.9529 0 12.1839 0.562 10.7619 1.509C10.4409 1.684 10.0709 1.971 9.64688 2.395C9.64188 2.402 9.63588 2.407 9.62988 2.414C9.41688 2.618 9.21789 2.831 9.03088 3.055L9.02089 3.067C5.48889 7.096 7.36689 10.046 6.15089 12.52C6.15089 12.52 6.15089 12.521 6.15089 12.522C6.15089 12.523 6.15089 12.523 6.15089 12.524C6.09889 12.617 6.04588 12.712 5.99688 12.806C5.06588 14.399 3.17888 15.471 2.02688 16.622C0.808885 17.84 -0.671115 19.843 0.330885 20.234C1.33288 20.625 2.58988 19.432 2.98088 19.206C3.27588 19.036 4.00089 18.66 4.65288 18.548C4.70389 21.241 5.65588 23.703 7.21988 25.653L7.20189 25.63C7.94789 26.557 8.81188 27.348 9.78088 27.995L9.82288 28.021C9.19688 28.387 8.22688 28.99 7.73089 29.485C6.96388 30.252 6.09888 31.509 7.37188 31.509C8.64489 31.509 10.0149 31.117 10.4059 31.313C10.7969 31.509 11.8419 31.999 12.3009 31.999C12.7599 31.999 14.4869 30.922 14.7159 30.041C14.7389 29.955 14.7569 29.87 14.7749 29.787C15.1359 29.823 15.5019 29.845 15.8719 29.845C16.2329 29.845 16.5939 29.823 16.9459 29.789C16.9639 29.872 16.9829 29.956 17.0049 30.042C17.2339 30.923 18.9629 32 19.4199 32C19.8769 32 20.9209 31.511 21.3149 31.314C21.7089 31.117 23.0769 31.51 24.3499 31.51C25.6229 31.51 24.7559 30.253 23.9889 29.486C23.4969 28.995 22.5359 28.396 21.9099 28.029C22.9099 27.365 23.7669 26.585 24.4909 25.693L24.5079 25.672C26.0759 23.738 27.0429 21.261 27.0939 18.56V18.549C27.7369 18.666 28.5189 19.107 28.8019 19.311C29.1059 19.531 30.3909 20.622 31.3919 20.231C32.3929 19.84 30.9109 17.84 29.6929 16.621L29.6919 16.62ZM15.8599 15.311C15.3399 15.311 12.9099 12.354 12.9099 11.734C12.9099 11.093 13.6389 10.571 15.8599 10.571C18.0809 10.571 18.8099 11.202 18.8099 11.734C18.8099 12.266 16.3799 15.312 15.8599 15.312V15.311Z" fill="black"/>
</svg>
