<svg width="29" height="32" viewBox="0 0 29 32" fill="none" xmlns="http://www.w3.org/2000/svg">
<g clip-path="url(#clip0)">
<path d="M28.667 12.812C28.191 12.267 27.494 11.924 26.718 11.924C26.694 11.924 26.67 11.924 26.645 11.925H26.649C26.633 11.925 26.614 11.924 26.595 11.924C25.958 11.924 25.373 12.149 24.917 12.525L24.922 12.521C24.774 12.053 24.527 11.653 24.203 11.328C23.635 10.756 22.848 10.402 21.978 10.402C21.108 10.402 20.321 10.756 19.754 11.328C19.576 11.015 19.378 10.745 19.154 10.499L19.157 10.503C18.533 9.835 17.647 9.418 16.663 9.418C15.836 9.418 15.078 9.712 14.488 10.202L14.494 10.197V3.592C14.494 2.613 14.096 1.726 13.454 1.085C12.858 0.417001 11.994 -0.000999451 11.033 -0.000999451C11.013 -0.000999451 10.994 -0.000999451 10.974 5.49364e-07H10.977C10.972 5.49364e-07 10.967 5.49364e-07 10.962 5.49364e-07C9.08399 5.49364e-07 7.56099 1.518 7.55299 3.393V18.132L6.28399 16.481C5.65799 15.615 4.64999 15.058 3.51299 15.058C3.48199 15.058 3.45099 15.058 3.41999 15.059H3.42499C3.40899 15.059 3.39099 15.059 3.37199 15.059C2.43599 15.059 1.59199 15.452 0.994993 16.082L0.993993 16.084C0.379993 16.7 -7.08003e-06 17.551 -7.08003e-06 18.49C-7.08003e-06 18.493 -7.08003e-06 18.497 -7.08003e-06 18.5V18.499C-7.08003e-06 18.516 -0.00100708 18.536 -0.00100708 18.556C-0.00100708 19.323 0.263993 20.028 0.707993 20.585L0.702993 20.578L8.22499 30.577C8.84399 31.415 9.82899 31.953 10.939 31.953C10.952 31.953 10.966 31.953 10.979 31.953H10.977H25.028C25.541 31.948 26.014 31.777 26.395 31.49L26.389 31.494C26.767 31.199 27.043 30.789 27.165 30.317L27.168 30.302L28.957 23.116C29.264 21.91 29.443 20.524 29.446 19.097V14.86C29.448 14.824 29.449 14.782 29.449 14.739C29.449 13.989 29.151 13.309 28.666 12.81L28.667 12.811V12.812ZM13.76 23.667H13.301V17.918H13.76V23.667ZM17.598 23.667H17.124V17.918H17.598V23.667ZM21.435 23.667H20.961V17.918H21.404L21.435 23.667Z" fill="black"/>
</g>
<defs>
<clipPath id="clip0">
<rect width="29" height="32" fill="white"/>
</clipPath>
</defs>
</svg>
