<svg width="30" height="32" viewBox="0 0 30 32" fill="none" xmlns="http://www.w3.org/2000/svg">
<path d="M28.7093 12.8314C28.2326 12.2857 27.5346 11.9422 26.7575 11.9422C26.7334 11.9422 26.7094 11.9422 26.6844 11.9432H26.6884C26.6723 11.9432 26.6533 11.9422 26.6343 11.9422C25.9964 11.9422 25.4105 12.1675 24.9539 12.544L24.9589 12.54C24.8107 12.0714 24.5633 11.6708 24.2388 11.3453C23.67 10.7725 22.8819 10.418 22.0106 10.418C21.1394 10.418 20.3513 10.7725 19.7834 11.3453C19.6052 11.0319 19.4069 10.7615 19.1826 10.5151L19.1856 10.5191C18.5607 9.85016 17.6734 9.43256 16.688 9.43256C15.8598 9.43256 15.1007 9.72698 14.5099 10.2177L14.5159 10.2127V3.59817C14.5159 2.61776 14.1173 1.72949 13.4744 1.08756C12.8775 0.418602 12.0123 0 11.0499 0C11.0299 0 11.0108 0 10.9908 0.00100144H10.9938C10.9888 0.00100144 10.9838 0.00100144 10.9788 0.00100144C9.09808 0.00100144 7.57289 1.52119 7.56487 3.39889V18.1591L6.29405 16.5057C5.66715 15.6385 4.6577 15.0807 3.51906 15.0807C3.48801 15.0807 3.45697 15.0807 3.42592 15.0817H3.43093C3.41491 15.0817 3.39688 15.0817 3.37786 15.0817C2.44051 15.0817 1.59529 15.4752 0.997434 16.1062L0.996432 16.1082C0.381548 16.725 0.00100144 17.5773 0.00100144 18.5176C0.00100144 18.5206 0.00100144 18.5246 0.00100144 18.5276V18.5266C0.00100144 18.5437 0 18.5637 0 18.5837C0 19.3518 0.265381 20.0578 0.710021 20.6156L0.705013 20.6086L8.23784 30.622C8.85773 31.4612 9.84415 32 10.9557 32C10.9688 32 10.9828 32 10.9958 32H10.9938H25.065C25.5788 31.995 26.0525 31.8237 26.434 31.5363L26.428 31.5403C26.8065 31.2449 27.0829 30.8343 27.2051 30.3616L27.2081 30.3466L28.9997 23.1503C29.3071 21.9425 29.4864 20.5545 29.4894 19.1255V14.8824C29.4914 14.8463 29.4924 14.8043 29.4924 14.7612C29.4924 14.0101 29.194 13.3292 28.7083 12.8294L28.7093 12.8304V12.8314ZM13.7808 23.7021H13.3211V17.9448H13.7808V23.7021ZM17.6243 23.7021H17.1497V17.9448H17.6243V23.7021ZM21.4669 23.7021H20.9922V17.9448H21.4358L21.4669 23.7021Z" fill="black"/>
</svg>
