<svg width="48" height="48" viewBox="0 0 48 48" fill="none" xmlns="http://www.w3.org/2000/svg">
<path d="M44.8051 19.2472C44.0778 18.4285 43.0127 17.9133 41.827 17.9133C41.7903 17.9133 41.7537 17.9133 41.7155 17.9148H41.7216C41.6971 17.9148 41.6681 17.9133 41.639 17.9133C40.6657 17.9133 39.7718 18.2512 39.075 18.816L39.0827 18.81C38.8565 18.107 38.4791 17.5062 37.984 17.018C37.1161 16.1587 35.9136 15.627 34.5842 15.627C33.2548 15.627 32.0523 16.1587 31.1859 17.018C30.9139 16.5478 30.6114 16.1422 30.2691 15.7727L30.2737 15.7787C29.3202 14.7752 27.9664 14.1488 26.4628 14.1488C25.1992 14.1488 24.0409 14.5905 23.1394 15.3265L23.1486 15.319V5.39726C23.1486 3.92664 22.5404 2.59423 21.5594 1.63135C20.6487 0.627903 19.3285 0 17.8601 0C17.8295 0 17.8005 0 17.7699 0.00150216H17.7745C17.7669 0.00150216 17.7593 0.00150216 17.7516 0.00150216C14.882 0.00150216 12.5548 2.28178 12.5426 5.09833V27.2387L10.6036 24.7586C9.64703 23.4577 8.10679 22.621 6.36944 22.621C6.32207 22.621 6.2747 22.621 6.22733 22.6225H6.23497C6.21053 22.6225 6.18302 22.6225 6.15399 22.6225C4.72377 22.6225 3.43413 23.2129 2.5219 24.1592L2.52037 24.1622C1.58217 25.0876 1.00153 26.3659 1.00153 27.7764C1.00153 27.7809 1.00153 27.7869 1.00153 27.7915V27.7899C1.00153 27.8155 1 27.8455 1 27.8756C1 29.0277 1.40492 30.0868 2.08336 30.9235L2.07572 30.9129L13.5694 45.933C14.5153 47.1918 16.0204 48 17.7165 48C17.7363 48 17.7577 48 17.7776 48H17.7745H39.2447C40.0285 47.9925 40.7513 47.7356 41.3334 47.3045L41.3243 47.3105C41.9019 46.8674 42.3236 46.2515 42.51 45.5425L42.5146 45.5199L45.2482 34.7254C45.7173 32.9138 45.9908 30.8318 45.9954 28.6882V22.3236C45.9985 22.2695 46 22.2064 46 22.1418C46 21.0152 45.5447 19.9937 44.8036 19.2442L44.8051 19.2457V19.2472ZM22.027 35.5531H21.3256V26.9172H22.027V35.5531ZM27.8915 35.5531H27.1672V26.9172H27.8915V35.5531ZM33.7545 35.5531H33.0302V26.9172H33.7071L33.7545 35.5531Z" fill="black"/>
</svg>
