<svg width="1000" height="1000" viewBox="0 0 1000 1000" fill="none" xmlns="http://www.w3.org/2000/svg">
<path d="M933.439 400.983C918.287 383.927 896.099 373.193 871.396 373.193C870.632 373.193 869.868 373.193 869.072 373.224H869.199C868.69 373.224 868.085 373.193 867.48 373.193C847.202 373.193 828.58 380.234 814.063 392.001L814.223 391.876C809.511 377.23 801.648 364.712 791.334 354.541C773.253 336.64 748.2 325.562 720.504 325.562C692.809 325.562 667.756 336.64 649.706 354.541C644.04 344.746 637.737 336.296 630.606 328.597L630.702 328.723C610.838 307.818 582.633 294.768 551.309 294.768C524.982 294.768 500.852 303.968 482.071 319.303L482.262 319.146V112.443C482.262 81.8051 469.592 54.0464 449.155 33.9864C430.182 13.0813 402.678 0 372.085 0C371.449 0 370.844 0 370.207 0.031295H370.303C370.144 0.031295 369.984 0.031295 369.825 0.031295C310.042 0.031295 261.559 47.5371 261.304 106.215V567.472L220.908 515.804C200.98 488.703 168.891 471.271 132.697 471.271C131.71 471.271 130.723 471.271 129.736 471.303H129.895C129.386 471.303 128.813 471.303 128.208 471.303C98.4118 471.303 71.5443 483.601 52.5396 503.317L52.5078 503.38C32.9619 522.658 20.8651 549.29 20.8651 578.676C20.8651 578.769 20.8651 578.895 20.8651 578.989V578.957C20.8651 579.489 20.8333 580.115 20.8333 580.741C20.8333 604.744 29.2692 626.807 43.4033 644.239L43.2442 644.02L282.697 956.938C302.402 983.163 333.758 1000 369.093 1000C369.507 1000 369.953 1000 370.366 1000H370.303H817.597C833.928 999.844 848.985 994.492 861.114 985.51L860.922 985.636C872.956 976.404 881.742 963.573 885.625 948.801L885.721 948.332L942.671 723.446C952.444 685.704 958.142 642.33 958.238 597.672V465.075C958.302 463.948 958.333 462.634 958.333 461.288C958.333 437.817 948.847 416.536 933.408 400.92L933.439 400.951V400.983ZM458.896 740.69H444.284V560.775H458.896V740.69ZM581.073 740.69H565.984V560.775H581.073V740.69ZM703.219 740.69H688.13V560.775H702.232L703.219 740.69Z" fill="black"/>
</svg>
