<svg width="1000" height="1000" viewBox="0 0 1000 1000" fill="none" xmlns="http://www.w3.org/2000/svg">
<path d="M936.004 519.375C901.265 484.938 845.31 452.688 814.826 406.375C811.201 399.156 807.355 392.094 803.226 385.219C771.607 311.469 820.784 224 725.015 107.031C712.847 90.8438 699.354 76.75 684.38 64.3125L683.971 64C678.454 59.0625 672.433 54.4375 666.034 50.3125L665.466 49.9688C619.851 18.7188 562.572 0 500.281 0C439.85 0 384.084 17.5625 339.257 47.1562C329.138 52.625 317.474 61.5938 304.108 74.8438C303.95 75.0625 303.761 75.2188 303.572 75.4375C296.857 81.8125 290.584 88.4688 284.689 95.4688L284.374 95.8438C173.031 221.75 232.233 313.938 193.9 391.25C193.9 391.25 193.9 391.281 193.9 391.312C193.9 391.344 193.9 391.344 193.9 391.375C192.261 394.281 190.59 397.25 189.045 400.188C159.697 449.969 100.211 483.469 63.8953 519.438C25.4992 557.5 -21.1562 620.094 10.4308 632.312C42.0177 644.531 81.6433 607.25 93.9691 600.188C103.269 594.875 126.124 583.125 146.677 579.625C148.285 663.781 178.296 740.719 227.599 801.656L227.032 800.938C250.548 829.906 277.785 854.625 308.332 874.844L309.656 875.656C289.922 887.094 259.344 905.938 243.708 921.406C219.529 945.375 192.261 984.656 232.391 984.656C272.521 984.656 315.708 972.406 328.034 978.531C340.36 984.656 373.303 999.969 387.772 999.969C402.241 999.969 456.683 966.312 463.902 938.781C464.627 936.094 465.195 933.438 465.762 930.844C477.142 931.969 488.68 932.656 500.344 932.656C511.724 932.656 523.104 931.969 534.201 930.906C534.768 933.5 535.367 936.125 536.06 938.812C543.279 966.344 597.784 1000 612.191 1000C626.597 1000 659.508 984.719 671.929 978.562C684.349 972.406 727.474 984.688 767.604 984.688C807.734 984.688 780.402 945.406 756.224 921.438C740.714 906.094 710.419 887.375 690.685 875.906C722.209 855.156 749.225 830.781 772.048 802.906L772.584 802.25C822.014 741.812 852.497 664.406 854.105 580V579.656C874.375 583.312 899.027 597.094 907.948 603.469C917.531 610.344 958.04 644.438 989.595 632.219C1021.15 620 974.432 557.5 936.036 519.406L936.004 519.375ZM499.966 478.469C483.573 478.469 406.97 386.062 406.97 366.688C406.97 346.656 429.951 330.344 499.966 330.344C569.98 330.344 592.961 350.062 592.961 366.688C592.961 383.312 516.358 478.5 499.966 478.5V478.469Z" fill="black"/>
</svg>
