<svg width="48" height="48" viewBox="0 0 48 48" fill="none" xmlns="http://www.w3.org/2000/svg">
<path d="M44.9282 24.93C43.2607 23.277 40.5749 21.729 39.1117 19.506C38.9377 19.1595 38.7531 18.8205 38.5548 18.4905C37.0371 14.9505 39.3977 10.752 34.8007 5.1375C34.2166 4.3605 33.569 3.684 32.8503 3.087L32.8306 3.072C32.5658 2.835 32.2768 2.613 31.9696 2.415L31.9424 2.3985C29.7528 0.8985 27.0035 0 24.0135 0C21.1128 0 18.436 0.843 16.2843 2.2635C15.7986 2.526 15.2387 2.9565 14.5972 3.5925C14.5896 3.603 14.5805 3.6105 14.5714 3.621C14.2491 3.927 13.948 4.2465 13.6651 4.5825L13.6499 4.6005C8.30549 10.644 11.1472 15.069 9.3072 18.78C9.3072 18.78 9.3072 18.7815 9.3072 18.783C9.3072 18.7845 9.3072 18.7845 9.3072 18.786C9.22851 18.9255 9.14832 19.068 9.07417 19.209C7.66543 21.5985 4.81012 23.2065 3.06698 24.933C1.22396 26.76 -1.0155 29.7645 0.500678 30.351C2.01685 30.9375 3.91888 29.148 4.51052 28.809C4.9569 28.554 6.05393 27.99 7.0405 27.822C7.11767 31.8615 8.55819 35.5545 10.9248 38.4795L10.8975 38.445C12.0263 39.8355 13.3337 41.022 14.7999 41.9925L14.8635 42.0315C13.9162 42.5805 12.4485 43.485 11.698 44.2275C10.5374 45.378 9.22851 47.2635 11.1548 47.2635C13.081 47.2635 15.154 46.6755 15.7456 46.9695C16.3373 47.2635 17.9185 47.9985 18.6131 47.9985C19.3076 47.9985 21.9208 46.383 22.2673 45.0615C22.3021 44.9325 22.3293 44.805 22.3566 44.6805C22.9028 44.7345 23.4566 44.7675 24.0165 44.7675C24.5628 44.7675 25.109 44.7345 25.6416 44.6835C25.6689 44.808 25.6976 44.934 25.7309 45.063C26.0774 46.3845 28.6936 48 29.3852 48C30.0767 48 31.6564 47.2665 32.2526 46.971C32.8487 46.6755 34.9187 47.265 36.845 47.265C38.7712 47.265 37.4593 45.3795 36.2987 44.229C35.5543 43.4925 34.1001 42.594 33.1529 42.0435C34.666 41.0475 35.9628 39.8775 37.0583 38.5395L37.084 38.508C39.4567 35.607 40.9199 31.8915 40.9971 27.84V27.8235C41.97 27.999 43.1533 28.6605 43.5815 28.9665C44.0415 29.2965 45.9859 30.933 47.5006 30.3465C49.0152 29.76 46.7727 26.76 44.9297 24.9315L44.9282 24.93ZM23.9983 22.9665C23.2115 22.9665 19.5346 18.531 19.5346 17.601C19.5346 16.6395 20.6376 15.8565 23.9983 15.8565C27.3591 15.8565 28.4621 16.803 28.4621 17.601C28.4621 18.399 24.7852 22.968 23.9983 22.968V22.9665Z" fill="black"/>
</svg>
