<svg width="48" height="48" viewBox="0 0 48 48" fill="none" xmlns="http://www.w3.org/2000/svg">
<path d="M38.151 14.0498L24 0L9.84899 14.0498C6.2358 17.6481 4 22.618 4 28.107C4 39.0927 12.9538 48 24 48C35.0462 48 44 39.0942 44 28.107C44 22.618 41.7657 17.6481 38.151 14.0498ZM8.95587 28.9639C8.94682 28.7718 8.94079 28.5467 8.94079 28.3201C8.94079 24.2671 10.6471 20.6117 13.3852 18.0248L13.3913 18.0188L23.9985 7.39477L34.6057 18.2648C37.3198 20.8068 39.0094 24.4037 39.0094 28.3936C39.0094 28.6367 39.0034 28.8783 38.9913 29.1184L38.9928 29.0854L8.95587 28.9639Z" fill="black"/>
</svg>
