<svg width="27" height="32" viewBox="0 0 27 32" fill="none" xmlns="http://www.w3.org/2000/svg">
<g clip-path="url(#clip0)">
<path d="M22.637 9.363L13.257 0L3.877 9.363C1.482 11.761 0 15.073 0 18.731C0 26.052 5.935 31.988 13.257 31.988C20.579 31.988 26.514 26.053 26.514 18.731C26.514 15.073 25.033 11.761 22.637 9.363ZM3.285 19.302C3.279 19.174 3.275 19.024 3.275 18.873C3.275 16.172 4.406 13.736 6.221 12.012L6.225 12.008L13.256 4.928L20.287 12.172C22.086 13.866 23.206 16.263 23.206 18.922C23.206 19.084 23.202 19.245 23.194 19.405L23.195 19.383L3.285 19.302Z" fill="black"/>
</g>
<defs>
<clipPath id="clip0">
<rect width="27" height="32" fill="white"/>
</clipPath>
</defs>
</svg>
