<svg width="1000" height="1000" viewBox="0 0 1000 1000" fill="none" xmlns="http://www.w3.org/2000/svg">
<path d="M794.813 292.703L500 0L205.187 292.703C129.913 367.669 83.3333 471.208 83.3333 585.563C83.3333 814.43 269.87 1000 500 1000C730.13 1000 916.667 814.462 916.667 585.563C916.667 471.208 870.119 367.669 794.813 292.703ZM186.581 603.414C186.392 599.412 186.266 594.723 186.266 590.002C186.266 505.565 221.814 429.411 278.859 375.516L278.985 375.391L499.969 154.058L720.952 380.518C777.495 433.475 812.696 508.409 812.696 591.534C812.696 596.599 812.571 601.632 812.319 606.634L812.351 605.946L186.581 603.414Z" fill="black"/>
</svg>
