<svg width="32" height="32" viewBox="0 0 32 32" fill="none" xmlns="http://www.w3.org/2000/svg">
<g clip-path="url(#clip0)">
<path d="M29.691 16.62C28.589 15.518 26.814 14.486 25.847 13.004C25.732 12.773 25.61 12.547 25.479 12.327C24.476 9.967 26.036 7.168 22.998 3.425C22.612 2.907 22.184 2.456 21.709 2.058L21.696 2.048C21.521 1.89 21.33 1.742 21.127 1.61L21.109 1.599C19.662 0.599 17.845 0 15.869 0C13.952 0 12.183 0.562 10.761 1.509C10.44 1.684 10.07 1.971 9.646 2.395C9.641 2.402 9.635 2.407 9.629 2.414C9.416 2.618 9.217 2.831 9.03 3.055L9.02 3.067C5.488 7.096 7.366 10.046 6.15 12.52C6.15 12.52 6.15 12.521 6.15 12.522C6.15 12.523 6.15 12.523 6.15 12.524C6.098 12.617 6.045 12.712 5.996 12.806C5.065 14.399 3.178 15.471 2.026 16.622C0.808 17.84 -0.672 19.843 0.33 20.234C1.332 20.625 2.589 19.432 2.98 19.206C3.275 19.036 4 18.66 4.652 18.548C4.703 21.241 5.655 23.703 7.219 25.653L7.201 25.63C7.947 26.557 8.811 27.348 9.78 27.995L9.822 28.021C9.196 28.387 8.226 28.99 7.73 29.485C6.963 30.252 6.098 31.509 7.371 31.509C8.644 31.509 10.014 31.117 10.405 31.313C10.796 31.509 11.841 31.999 12.3 31.999C12.759 31.999 14.486 30.922 14.715 30.041C14.738 29.955 14.756 29.87 14.774 29.787C15.135 29.823 15.501 29.845 15.871 29.845C16.232 29.845 16.593 29.823 16.945 29.789C16.963 29.872 16.982 29.956 17.004 30.042C17.233 30.923 18.962 32 19.419 32C19.876 32 20.92 31.511 21.314 31.314C21.708 31.117 23.076 31.51 24.349 31.51C25.622 31.51 24.755 30.253 23.988 29.486C23.496 28.995 22.535 28.396 21.909 28.029C22.909 27.365 23.766 26.585 24.49 25.693L24.507 25.672C26.075 23.738 27.042 21.261 27.093 18.56V18.549C27.736 18.666 28.518 19.107 28.801 19.311C29.105 19.531 30.39 20.622 31.391 20.231C32.392 19.84 30.91 17.84 29.692 16.621L29.691 16.62ZM15.859 15.311C15.339 15.311 12.909 12.354 12.909 11.734C12.909 11.093 13.638 10.571 15.859 10.571C18.08 10.571 18.809 11.202 18.809 11.734C18.809 12.266 16.379 15.312 15.859 15.312V15.311Z" fill="black"/>
</g>
<defs>
<clipPath id="clip0">
<rect width="32" height="32" fill="white"/>
</clipPath>
</defs>
</svg>
