<svg width="1000" height="1000" viewBox="0 0 1000 1000" fill="none" xmlns="http://www.w3.org/2000/svg">
<path d="M0 0L498.25 1000L1000 0H0ZM557.562 200.75H615.562V258.375H557.562V200.75ZM442.062 433.281H384.062V374.625H442.062V433.281ZM442.062 346.344H384.062V287.688H442.062V346.344ZM442.062 259.406H384.062V200.75H442.062V259.406ZM529.656 519.562H471V461.562H529.656V519.562ZM529.656 432.625H471V374.625H529.656V432.625ZM529.656 345.688H471V287.688H529.656V345.688ZM529.656 258.375H471V200.75H529.656V258.375ZM558.188 287.312H616.188V345.312H557.531L558.188 287.312ZM558.188 432.25V374.625H616.188V432.625L558.188 432.25Z" fill="black"/>
</svg>
