<svg width="32" height="32" viewBox="0 0 32 32" fill="none" xmlns="http://www.w3.org/2000/svg">
<path d="M0 0L15.944 32L32 0H0ZM17.842 6.424H19.698V8.268H17.842V6.424ZM14.146 13.865H12.29V11.988H14.146V13.865ZM14.146 11.083H12.29V9.206H14.146V11.083ZM14.146 8.301H12.29V6.424H14.146V8.301ZM16.949 16.626H15.072V14.77H16.949V16.626ZM16.949 13.844H15.072V11.988H16.949V13.844ZM16.949 11.062H15.072V9.206H16.949V11.062ZM16.949 8.268H15.072V6.424H16.949V8.268ZM17.862 9.194H19.718V11.05H17.841L17.862 9.194ZM17.862 13.832V11.988H19.718V13.844L17.862 13.832Z" fill="black"/>
</svg>
