<svg width="48" height="48" viewBox="0 0 48 48" fill="none" xmlns="http://www.w3.org/2000/svg">
<path d="M0 0L23.916 48L48 0H0ZM26.763 9.636H29.547V12.402H26.763V9.636ZM21.219 20.7975H18.435V17.982H21.219V20.7975ZM21.219 16.6245H18.435V13.809H21.219V16.6245ZM21.219 12.4515H18.435V9.636H21.219V12.4515ZM25.4235 24.939H22.608V22.155H25.4235V24.939ZM25.4235 20.766H22.608V17.982H25.4235V20.766ZM25.4235 16.593H22.608V13.809H25.4235V16.593ZM25.4235 12.402H22.608V9.636H25.4235V12.402ZM26.793 13.791H29.577V16.575H26.7615L26.793 13.791ZM26.793 20.748V17.982H29.577V20.766L26.793 20.748Z" fill="black"/>
</svg>
