<svg width="40" height="32" viewBox="0 0 40 32" fill="none" xmlns="http://www.w3.org/2000/svg">
<g clip-path="url(#clip0)">
<path d="M40.276 16.629L36.969 14.579L40.261 12.716L20.185 0L0.0010004 12.716L3.277 14.564L0.0010004 16.629L3.277 18.492L0.0010004 20.557L20.185 32L40.369 20.557L37.062 18.507L40.276 16.629ZM20.184 1.987L37.015 12.638L35.354 13.57L20.185 22.218L3.261 12.638L20.184 1.987ZM4.922 15.526L20.138 24.159L20.573 23.911L35.308 15.527L37 16.567L35.354 17.499L20.154 26.147L3.261 16.567L4.922 15.526ZM36.999 20.495L20.184 30.075L3.26 20.48L4.921 19.44L20.183 28.073L35.352 19.44L36.999 20.495Z" fill="black"/>
</g>
<defs>
<clipPath id="clip0">
<rect width="40" height="32" fill="white"/>
</clipPath>
</defs>
</svg>
