<svg width="1000" height="1000" viewBox="0 0 1000 1000" fill="none" xmlns="http://www.w3.org/2000/svg">
<path d="M636.576 679.177L726.464 596.327C730.009 592.794 732.206 587.94 732.206 582.575C732.206 577.21 730.009 572.356 726.464 568.823C722.899 565.253 717.947 563.043 712.455 563.043C710.875 563.043 709.353 563.232 707.889 563.572L708.023 563.553L582.392 596.327L746.811 321.029C870.457 398.779 953.043 530.137 960.365 680.801L960.403 681.821H636.556L636.576 679.177ZM605.842 653.94C602.22 645.308 597.961 637.865 592.932 631.008L593.164 631.329L646.942 618.9L605.842 653.94ZM537.844 593.682C526.051 589.035 512.39 586.334 498.073 586.334C483.757 586.334 470.095 589.035 457.571 593.947L458.303 593.701L287.352 299.57C349.223 267.288 422.637 248.323 500.559 248.323C578.481 248.323 651.913 267.288 716.27 300.742L713.766 299.551L537.844 593.682ZM499.422 772.964C456.993 772.964 422.579 739.246 422.579 697.632C422.579 656.018 456.973 622.3 499.422 622.3C499.441 622.3 499.441 622.3 499.46 622.3C541.081 622.3 574.974 654.752 576.265 695.252V695.365C576.072 737.357 542.063 771.491 499.576 772.945H499.441L499.422 772.964ZM384.177 679.932H38.4215C46.0711 527.738 128.329 395.87 249.855 317.95L251.647 316.873L426.067 611.382C405.584 628.666 390.767 651.9 384.369 678.308L384.196 679.177L384.177 679.932ZM749.509 273.937C677.868 232.701 591.738 208.333 499.807 208.333C407.877 208.333 321.727 232.682 247.736 275.184L250.087 273.937C99.6956 360.886 0.308297 518.785 0 699.464V699.502C0 699.615 0 699.748 0 699.88C0 710.704 8.94061 719.468 19.9815 719.468H384.177C394.177 772.7 441.154 812.5 497.611 812.5C498.247 812.5 498.882 812.5 499.518 812.481H499.422C499.942 812.481 500.578 812.5 501.195 812.5C557.131 812.5 603.53 772.511 612.278 720.092L612.374 719.45H979.633C979.749 719.45 979.884 719.45 980.019 719.45C991.059 719.45 1000 710.685 1000 699.861C999.942 519.351 900.998 361.491 753.382 275.543L751.069 274.296L749.509 273.937Z" fill="black"/>
</svg>
