<svg width="48" height="48" viewBox="0 0 48 48" fill="none" xmlns="http://www.w3.org/2000/svg">
<path d="M30.5556 32.6005L34.8702 28.6237C35.0404 28.4541 35.1459 28.2211 35.1459 27.9636C35.1459 27.7061 35.0404 27.4731 34.8702 27.3035C34.6991 27.1322 34.4614 27.0261 34.1978 27.0261C34.122 27.0261 34.0489 27.0351 33.9786 27.0515L33.9851 27.0506L27.9548 28.6237L35.8469 15.4094C41.782 19.1414 45.746 25.4466 46.0975 32.6785L46.0993 32.7274H30.5547L30.5556 32.6005ZM29.0804 31.3891C28.9065 30.9748 28.7021 30.6175 28.4608 30.2884L28.4718 30.3038L31.0532 29.7072L29.0804 31.3891ZM25.8165 28.4967C25.2505 28.2737 24.5947 28.144 23.9075 28.144C23.2203 28.144 22.5646 28.2737 21.9634 28.5094L21.9985 28.4977L13.7929 14.3794C16.7627 12.8298 20.2866 11.9195 24.0268 11.9195C27.7671 11.9195 31.2918 12.8298 34.381 14.4356L34.2607 14.3785L25.8165 28.4967ZM23.9723 37.1023C21.9356 37.1023 20.2838 35.4838 20.2838 33.4863C20.2838 31.4889 21.9347 29.8704 23.9723 29.8704C23.9732 29.8704 23.9732 29.8704 23.9741 29.8704C25.9719 29.8704 27.5988 31.4281 27.6607 33.3721V33.3775C27.6515 35.3931 26.019 37.0315 23.9797 37.1014H23.9732L23.9723 37.1023ZM18.4405 32.6368H1.84423C2.21141 25.3314 6.15978 19.0018 11.9931 15.2616L12.0791 15.2099L20.4512 29.3463C19.468 30.176 18.7568 31.2912 18.4497 32.5588L18.4414 32.6005L18.4405 32.6368ZM35.9764 13.149C32.5377 11.1696 28.4034 10 23.9908 10C19.5781 10 15.4429 11.1687 11.8913 13.2088L12.0042 13.149C4.78539 17.3225 0.0147983 24.9017 0 33.5743V33.5761C0 33.5815 0 33.5879 0 33.5942C0 34.1138 0.429149 34.5345 0.959112 34.5345H18.4405C18.9205 37.0896 21.1754 39 23.8853 39C23.9158 39 23.9464 39 23.9769 38.9991H23.9723C23.9972 38.9991 24.0277 39 24.0573 39C26.7423 39 28.9694 37.0805 29.3893 34.5644L29.394 34.5336H47.0224C47.0279 34.5336 47.0344 34.5336 47.0409 34.5336C47.5709 34.5336 48 34.1129 48 33.5933C47.9972 24.9289 43.2479 17.3516 36.1623 13.2261L36.0513 13.1662L35.9764 13.149Z" fill="black"/>
</svg>
