<svg width="1000" height="1000" viewBox="0 0 1000 1000" fill="none" xmlns="http://www.w3.org/2000/svg">
<path d="M997.696 515.561L915.775 464.845L997.325 418.755L500 104.167L0 418.755L81.1534 464.474L0 515.561L81.1534 561.651L0 612.738L500 895.833L1000 612.738L918.079 562.022L997.696 515.561ZM499.975 153.324L916.914 416.825L875.768 439.883L500 653.831L80.757 416.825L499.975 153.324ZM121.903 488.273L498.836 701.85L509.612 695.715L874.628 488.298L916.543 514.027L875.768 537.084L499.232 751.032L80.757 514.027L121.903 488.273ZM916.518 611.204L499.975 848.209L80.7323 610.833L121.879 585.104L499.95 798.681L875.718 585.104L916.518 611.204Z" fill="black"/>
</svg>
