<svg width="52" height="32" viewBox="0 0 52 32" fill="none" xmlns="http://www.w3.org/2000/svg">
<path d="M33.037 24.942L37.702 20.556C37.886 20.369 38 20.112 38 19.828C38 19.544 37.886 19.287 37.702 19.1C37.517 18.911 37.26 18.794 36.975 18.794C36.893 18.794 36.814 18.804 36.738 18.822L36.745 18.821L30.225 20.556L38.758 5.982C45.175 10.098 49.461 17.052 49.841 25.028L49.843 25.082H33.036L33.037 24.942ZM31.442 23.606C31.254 23.149 31.033 22.755 30.772 22.392L30.784 22.409L33.575 21.751L31.442 23.606ZM27.913 20.416C27.301 20.17 26.592 20.027 25.849 20.027C25.106 20.027 24.397 20.17 23.747 20.43L23.785 20.417L14.913 4.846C18.124 3.137 21.934 2.133 25.978 2.133C30.022 2.133 33.833 3.137 37.173 4.908L37.043 4.845L27.913 20.416ZM25.919 29.907C23.717 29.907 21.931 28.122 21.931 25.919C21.931 23.716 23.716 21.931 25.919 21.931C25.92 21.931 25.92 21.931 25.921 21.931C28.081 21.931 29.84 23.649 29.907 25.793V25.799C29.897 28.022 28.132 29.829 25.927 29.906H25.92L25.919 29.907ZM19.938 24.982H1.994C2.391 16.925 6.66 9.944 12.967 5.819L13.06 5.762L22.112 21.353C21.049 22.268 20.28 23.498 19.948 24.896L19.939 24.942L19.938 24.982ZM38.898 3.489C35.18 1.306 30.71 0.0159988 25.939 0.0159988C21.168 0.0159988 16.697 1.305 12.857 3.555L12.979 3.489C5.174 8.092 0.016 16.451 0 26.016V26.018C0 26.024 0 26.031 0 26.038C0 26.611 0.464 27.075 1.037 27.075H19.938C20.457 29.893 22.895 32 25.825 32C25.858 32 25.891 32 25.924 31.999H25.919C25.946 31.999 25.979 32 26.011 32C28.914 32 31.322 29.883 31.776 27.108L31.781 27.074H50.841C50.847 27.074 50.854 27.074 50.861 27.074C51.434 27.074 51.898 26.61 51.898 26.037C51.895 16.481 46.76 8.124 39.099 3.574L38.979 3.508L38.898 3.489Z" fill="black"/>
</svg>
