<svg width="48" height="48" viewBox="0 0 48 48" fill="none" xmlns="http://www.w3.org/2000/svg">
<path d="M47.8894 24.7469L43.9572 22.3126L47.8716 20.1002L24 5L0 20.1002L3.89536 22.2948L0 24.7469L3.89536 26.9593L0 29.4114L24 43L48 29.4114L44.0678 26.9771L47.8894 24.7469ZM23.9988 7.35956L44.0119 20.0076L42.0369 21.1144L24 31.3839L3.87634 20.0076L23.9988 7.35956ZM5.85137 23.4371L23.9441 33.6888L24.4614 33.3943L41.9822 23.4383L43.9941 24.6733L42.0369 25.7801L23.9631 36.0496L3.87634 24.6733L5.85137 23.4371ZM43.9929 29.3378L23.9988 40.7141L3.87515 29.32L5.85018 28.085L23.9976 38.3367L42.0345 28.085L43.9929 29.3378Z" fill="black"/>
</svg>
