<svg width="48" height="48" viewBox="0 0 48 48" fill="none" xmlns="http://www.w3.org/2000/svg">
<path d="M48 9.20028L36.9625 0L33.8527 3.64888L44.8902 12.8492L48 9.20028ZM14.1216 3.64888L11.0375 0L0 9.17475L3.08411 12.8236L14.1216 3.64888ZM25.2105 14.6481H21.5903V28.9673L32.9842 35.759L34.7936 32.9465L25.1833 27.1684L25.2105 14.6481ZM23.9872 5.06939C12.0736 5.0844 2.42258 14.6886 2.42258 26.5347C2.42258 38.3898 12.0887 48 24.0128 48C35.9369 48 45.6031 38.3898 45.6031 26.5347C45.588 14.6766 35.9158 5.06939 23.9872 5.06939ZM23.9872 43.2354C14.7092 43.2354 7.1892 35.7575 7.1892 26.5347C7.1892 17.3119 14.7107 9.83395 23.9872 9.83395C33.2652 9.83395 40.7851 17.3119 40.7851 26.5347C40.7851 26.5527 40.7851 26.5707 40.7851 26.5888V26.5857C40.7851 35.8101 33.2636 43.2865 23.9872 43.2865V43.2354Z" fill="black"/>
</svg>
