<svg width="32" height="32" viewBox="0 0 32 32" fill="none" xmlns="http://www.w3.org/2000/svg">
<path d="M31.781 6.127L24.473 0L22.414 2.43L29.722 8.557L31.781 6.127ZM9.35 2.43L7.308 0L0 6.11L2.042 8.54L9.35 2.43ZM16.692 9.755H14.295V19.291L21.839 23.814L23.037 21.941L16.674 18.093L16.692 9.755ZM15.882 3.376C7.994 3.386 1.604 9.782 1.604 17.671C1.604 25.566 8.004 31.966 15.899 31.966C23.794 31.966 30.194 25.566 30.194 17.671C30.184 9.774 23.78 3.376 15.882 3.376ZM15.882 28.793C9.739 28.793 4.76 23.813 4.76 17.671C4.76 11.529 9.74 6.549 15.882 6.549C22.025 6.549 27.004 11.529 27.004 17.671C27.004 17.683 27.004 17.695 27.004 17.707V17.705C27.004 23.848 22.024 28.827 15.882 28.827V28.793Z" fill="black"/>
</svg>
