<svg width="1000" height="1000" viewBox="0 0 1000 1000" fill="none" xmlns="http://www.w3.org/2000/svg">
<path d="M1000 191.672L770.051 0L705.264 76.0183L935.213 267.691L1000 191.672ZM294.201 76.0183L229.949 0L0 191.141L64.2522 267.159L294.201 76.0183ZM525.219 305.168H449.797V603.485L687.172 744.979L724.867 686.386L524.653 566.008L525.219 305.168ZM499.733 105.612C251.534 105.925 50.4704 306.013 50.4704 552.806C50.4704 799.787 251.849 1000 500.267 1000C748.686 1000 950.065 799.787 950.065 552.806C949.75 305.762 748.246 105.612 499.733 105.612ZM499.733 900.738C306.441 900.738 149.775 744.948 149.775 552.806C149.775 360.664 306.472 204.874 499.733 204.874C693.024 204.874 849.69 360.664 849.69 552.806C849.69 553.182 849.69 553.557 849.69 553.932V553.87C849.69 746.043 692.993 901.802 499.733 901.802V900.738Z" fill="black"/>
</svg>
