<svg width="52" height="32" viewBox="0 0 52 32" fill="none" xmlns="http://www.w3.org/2000/svg">
<path d="M33.0535 24.9385L37.7209 20.5503C37.905 20.3632 38.019 20.1061 38.019 19.8219C38.019 19.5378 37.905 19.2806 37.7209 19.0935C37.5358 18.9045 37.2786 18.7874 36.9935 18.7874C36.9115 18.7874 36.8324 18.7974 36.7564 18.8154L36.7634 18.8144L30.2401 20.5503L38.7774 5.96898C45.1976 10.087 49.4857 17.0445 49.8659 25.0245L49.8679 25.0785H33.0525L33.0535 24.9385ZM31.4577 23.6018C31.2696 23.1446 31.0485 22.7504 30.7874 22.3872L30.7994 22.4042L33.5918 21.7459L31.4577 23.6018ZM27.927 20.4102C27.3147 20.1641 26.6053 20.021 25.8619 20.021C25.1186 20.021 24.4092 20.1641 23.7589 20.4242L23.7969 20.4112L14.9205 4.83242C18.1331 3.12256 21.945 2.11806 25.991 2.11806C30.037 2.11806 33.8499 3.12256 37.1916 4.89445L37.0615 4.83142L27.927 20.4102ZM25.932 29.906C23.7289 29.906 21.942 28.1201 21.942 25.916C21.942 23.7119 23.7279 21.926 25.932 21.926C25.933 21.926 25.933 21.926 25.934 21.926C28.095 21.926 29.8549 23.6448 29.922 25.7899V25.7959C29.912 28.02 28.1461 29.8279 25.94 29.905H25.933L25.932 29.906ZM19.948 24.9785H1.995C2.3922 16.9175 6.66333 9.93297 12.9735 5.8059L13.0665 5.74887L22.1231 21.3477C21.0595 22.2631 20.2901 23.4937 19.958 24.8924L19.949 24.9385L19.948 24.9785ZM38.9175 3.47474C35.1976 1.29065 30.7254 0 25.952 0C21.1786 0 16.7054 1.28964 12.8634 3.54077L12.9855 3.47474C5.17659 8.08004 0.016008 16.4432 0 26.013V26.015C0 26.021 0 26.028 0 26.035C0 26.6083 0.464232 27.0725 1.03752 27.0725H19.948C20.4672 29.8919 22.9065 32 25.8379 32C25.8709 32 25.904 32 25.937 31.999H25.932C25.959 31.999 25.992 32 26.024 32C28.9285 32 31.3377 29.8819 31.7919 27.1056L31.7969 27.0715H50.8664C50.8724 27.0715 50.8794 27.0715 50.8864 27.0715C51.4597 27.0715 51.924 26.6073 51.924 26.034C51.921 16.4732 46.7834 8.11206 39.1186 3.55978L38.9985 3.49375L38.9175 3.47474Z" fill="black"/>
</svg>
