<svg width="32" height="32" viewBox="0 0 32 32" fill="none" xmlns="http://www.w3.org/2000/svg">
<path d="M31.8148 6.13352L24.499 0L22.4378 2.43258L29.7536 8.5661L31.8148 6.13352ZM9.35995 2.43258L7.31577 0L0 6.1165L2.04417 8.54908L9.35995 2.43258ZM16.7098 9.76538H14.3102V19.3115L21.8622 23.8393L23.0615 21.9643L16.6917 18.1122L16.7098 9.76538ZM15.8989 3.37959C8.0025 3.3896 1.60571 9.7924 1.60571 17.6898C1.60571 25.5932 8.01251 32 15.9159 32C23.8193 32 30.2261 25.5932 30.2261 17.6898C30.2161 9.7844 23.8053 3.37959 15.8989 3.37959ZM15.8989 28.8236C9.74936 28.8236 4.76506 23.8383 4.76506 17.6898C4.76506 11.5413 9.75036 6.55597 15.8989 6.55597C22.0484 6.55597 27.0327 11.5413 27.0327 17.6898C27.0327 17.7018 27.0327 17.7138 27.0327 17.7258V17.7238C27.0327 23.8734 22.0474 28.8577 15.8989 28.8577V28.8236Z" fill="black"/>
</svg>
